<svg xmlns="http://www.w3.org/2000/svg" xmlns:xlink="http://www.w3.org/1999/xlink" width="38.255" height="26.925" viewBox="0 0 38.255 26.925">
  <defs>
    <clipPath id="clip-path">
      <rect id="Rectangle_48" data-name="Rectangle 48" width="38.255" height="26.925" fill="none" stroke="#fff" stroke-width="1"/>
    </clipPath>
  </defs>
  <g id="Group_20" data-name="Group 20" transform="translate(0)">
    <g id="Group_15" data-name="Group 15" transform="translate(0)" clip-path="url(#clip-path)">
      <path id="Path_11" data-name="Path 11" d="M.3,2.354A.121.121,0,0,1,.347,2.24c.068-.033.043-.075.012-.118a1.214,1.214,0,0,1,.318-.527c.246-.207.5-.4.736-.624A3.541,3.541,0,0,1,3.924.013Q19.145-.015,34.366,0a4.354,4.354,0,0,1,.672.065A3.516,3.516,0,0,1,37.083,1.1c.045.046.087.115.173.074l.175.18a2.346,2.346,0,0,0,.341.739,3.413,3.413,0,0,1,.473,1.737q.022,9.587,0,19.174a3.6,3.6,0,0,1-.219,1.271A9.84,9.84,0,0,1,37.42,25.5l-.106.136c-.26.148-.389.427-.612.612l-.4.275a.584.584,0,0,0-.376.028,4.7,4.7,0,0,1-1.7.371q-15.134,0-30.267,0a3,3,0,0,1-1.017-.142c-.1-.036-.22-.1-.323.011-.088.039-.151-.052-.233-.045a.936.936,0,0,0-.792-.5A3.115,3.115,0,0,1,.848,25.5c0-.019.014-.044.006-.057A5.048,5.048,0,0,1,.11,23.728c0-.022-.062-.036-.094-.053L0,23.392a3.994,3.994,0,0,0,.061-.5Q.066,13.514.066,4.132q0-.529,0-1.058L.1,2.854a.653.653,0,0,0,.2-.5m8,4.632c0,.17.1.2.241.173l.156.1a1.8,1.8,0,0,0,.629.5,9.575,9.575,0,0,1,1.2.766c.16.145.345.381.64.263l.631.414c.03.128.177.093.246.182a4.118,4.118,0,0,0,1.352.965c.8.444,1.562.95,2.342,1.425a2.611,2.611,0,0,0,.95.49l.3.191a2.178,2.178,0,0,0,1.36.784c.08.013.16-.046.253,0a2.914,2.914,0,0,0,2.131.083.156.156,0,0,0,.126-.173l.107-.016a.251.251,0,0,0,.272,0c.573-.381,1.141-.767,1.7-1.171.445-.321.895-.646,1.358-.945a7.29,7.29,0,0,0,.852-.555c.275-.24.589-.417.859-.651.227-.2.592-.259.656-.626l.345-.2a.642.642,0,0,0,.6-.459l.216-.145c.107.071.176-.01.263-.056.273-.142.452-.414.714-.55.542-.282.98-.708,1.5-1.016a.254.254,0,0,0,.139-.2c.094-.065.15-.186.282-.2.254.053.358-.118.452-.3l.091-.094a.547.547,0,0,0,.46-.148c.591-.434,1.172-.881,1.754-1.327.058-.045.133-.09.128-.184.161-.053.251-.2.39-.286.287.054.391-.182.541-.343.078-.039.115-.144.221-.138a3.228,3.228,0,0,0,1.2-.859.13.13,0,0,0-.014-.188c-.19-.166-.332-.426-.652-.356a1.163,1.163,0,0,0-.466-.175c-.125-.216-.336-.119-.5-.119Q19.155,1.836,3.99,1.837A2.245,2.245,0,0,0,2.2,2.687c-.125.147-.212.378-.078.478.224.167.4.45.733.441l.053.008c0,.029-.006.072.009.084a9.637,9.637,0,0,0,1.369.953c1.09.595,2.128,1.274,3.181,1.928a1.738,1.738,0,0,0,.83.405Zm24.049.654h0c-.194-.057-.265.1-.375.205a4.18,4.18,0,0,1-.748.427c-.483.295-.875.712-1.378.99a6.266,6.266,0,0,0-.918.621,11.76,11.76,0,0,1-2.011,1.453c-.138.071-.353.162-.368.391-.2.087-.31.3-.518.385-.1-.059-.141-.025-.139.083a.466.466,0,0,1-.3.224c-.224-.081-.319.135-.439.229-.225.177-.588.224-.636.592l-.278.141a4.249,4.249,0,0,0-1.6.981,3.664,3.664,0,0,1-1.923.831,7.6,7.6,0,0,1-1.44.025c-.09,0-.2-.051-.258.075-.118-.016-.243.016-.354-.052-.039-.084-.087-.043-.134-.009l-.218-.023c-.179-.133-.347-.292-.6-.229A1.366,1.366,0,0,0,17.3,14.8c-.015-.078-.076-.106-.141-.135-.316-.141-.626-.3-.949-.423-.144-.054-.2-.259-.4-.207l-.108-.012a.433.433,0,0,0-.494-.33c-.109.007-.129-.119-.215-.145.017-.114-.074-.141-.144-.195-.5-.384-1.1-.611-1.588-1.011a10.946,10.946,0,0,0-1.137-.71,3.077,3.077,0,0,0-1.1-.564l-.226-.134c.022-.109-.052-.151-.128-.2-.429-.3-.878-.579-1.312-.877-.2-.14-.42-.354-.722-.3a.105.105,0,0,1-.046-.018c.027-.126-.075-.175-.15-.228A31.088,31.088,0,0,1,5.573,7.432a8.161,8.161,0,0,0-1.389-.777.185.185,0,0,0-.221-.012.237.237,0,0,1-.177-.063,3.964,3.964,0,0,0-.756-.546c-.009-.047,0-.119-.03-.139a8.511,8.511,0,0,0-.856-.558c-.281-.147-.417-.036-.417.291q0,8.331.006,16.661a4.428,4.428,0,0,0,.086,1c.059.259.247.469.258.724.016.37.321.517.535.688a2.159,2.159,0,0,0,1.407.355q14.146-.009,28.292,0c.74,0,1.48-.009,2.219,0A2.08,2.08,0,0,0,36.548,22.8c0-.917,0-1.835,0-2.752q0-7.5-.005-15c0-.108.019-.221-.114-.275a.261.261,0,0,0-.3.065c-.1.105-.272.136-.3.306-.115.034-.157.181-.29.186a.136.136,0,0,0-.135.028,12.953,12.953,0,0,1-1.5,1.037c-.141.075-.348.146-.365.37a.355.355,0,0,1-.2.162.507.507,0,0,0-.435.207c-.182.178-.506.2-.563.511" transform="translate(0 0)" fill="#fff" stroke="#fff" stroke-width="1"/>
    </g>
  </g>
</svg>
