<svg id="Group_36" data-name="Group 36" xmlns="http://www.w3.org/2000/svg" xmlns:xlink="http://www.w3.org/1999/xlink" width="319.651" height="319.648" viewBox="0 0 319.651 319.648">
  <defs>
    <clipPath id="clip-path">
      <rect id="Rectangle_51" data-name="Rectangle 51" width="319.651" height="319.648" fill="none"/>
    </clipPath>
  </defs>
  <g id="Group_27" data-name="Group 27">
    <g id="Group_26" data-name="Group 26" clip-path="url(#clip-path)">
      <path id="Path_17" data-name="Path 17" d="M595.419,350.3a4.317,4.317,0,1,1-4.317-4.317,4.317,4.317,0,0,1,4.317,4.317" transform="translate(-287.353 -169.432)" fill="#fcfcfc"/>
      <text id="K" transform="translate(27.92 121.711) rotate(-70.442)" fill="#fcfcfc" font-size="28" font-family="AnekTelugu-Medium, Anek Telugu" font-weight="500"><tspan x="0" y="0">K</tspan></text>
    </g>
  </g>
  <text id="n" transform="matrix(0.441, -0.897, 0.897, 0.441, 32.47, 105.981)" fill="#fcfcfc" font-size="27" font-family="AnekTelugu-Medium, Anek Telugu" font-weight="500"><tspan x="0" y="0">n</tspan></text>
  <text id="o" transform="matrix(0.54, -0.842, 0.842, 0.54, 39.459, 91.824)" fill="#fcfcfc" font-size="27" font-family="AnekTelugu-Medium, Anek Telugu" font-weight="500"><tspan x="0" y="0">o</tspan></text>
  <text id="w" transform="matrix(0.646, -0.764, 0.764, 0.646, 48.108, 79.741)" fill="#fcfcfc" font-size="28" font-family="AnekTelugu-Medium, Anek Telugu" font-weight="500"><tspan x="0" y="0">w</tspan></text>
  <text id="_" data-name=" " transform="translate(62.592 63.231) rotate(-43.788)" fill="#fcfcfc" font-size="28" font-family="AnekTelugu-Medium, Anek Telugu" font-weight="500"><tspan x="0" y="0"> </tspan></text>
  <text id="M" transform="matrix(0.79, -0.613, 0.613, 0.79, 67.343, 58.149)" fill="#fcfcfc" font-size="28" font-family="AnekTelugu-Medium, Anek Telugu" font-weight="500"><tspan x="0" y="0">M</tspan></text>
  <text id="o-2" data-name="o" transform="matrix(0.865, -0.501, 0.501, 0.865, 84.176, 44.122)" fill="#fcfcfc" font-size="27" font-family="AnekTelugu-Medium, Anek Telugu" font-weight="500"><tspan x="0" y="0">o</tspan></text>
  <text id="r" transform="translate(98.007 37.393) rotate(-24.558)" fill="#fcfcfc" font-size="28" font-family="AnekTelugu-Medium, Anek Telugu" font-weight="500"><tspan x="0" y="0">r</tspan></text>
  <g id="Group_29" data-name="Group 29">
    <g id="Group_28" data-name="Group 28" clip-path="url(#clip-path)">
      <text id="e" transform="matrix(0.944, -0.33, 0.33, 0.944, 107.391, 31.91)" fill="#fcfcfc" font-size="27" font-family="AnekTelugu-Medium, Anek Telugu" font-weight="500"><tspan x="0" y="0">e</tspan></text>
      <text id="_2" data-name=" " transform="translate(121.763 28.121) rotate(-14.674)" fill="#fcfcfc" font-size="28" font-family="AnekTelugu-Medium, Anek Telugu" font-weight="500"><tspan x="0" y="0"> </tspan></text>
      <text id="A" transform="matrix(0.986, -0.167, 0.167, 0.986, 128.297, 25.161)" fill="#fcfcfc" font-size="27" font-family="AnekTelugu-Medium, Anek Telugu" font-weight="500"><tspan x="0" y="0">A</tspan></text>
      <text id="b" transform="matrix(0.999, -0.048, 0.048, 0.999, 145.228, 22.352)" fill="#fcfcfc" font-size="27" font-family="AnekTelugu-Medium, Anek Telugu" font-weight="500"><tspan x="0" y="0">b</tspan></text>
      <text id="o-3" data-name="o" transform="translate(161.113 21.61) rotate(3.616)" fill="#fcfcfc" font-size="27" font-family="AnekTelugu-Medium, Anek Telugu" font-weight="500"><tspan x="0" y="0">o</tspan></text>
      <text id="u" transform="translate(176.49 22.585) rotate(10.072)" fill="#fcfcfc" font-size="27" font-family="AnekTelugu-Medium, Anek Telugu" font-weight="500"><tspan x="0" y="0">u</tspan></text>
      <text id="t" transform="translate(191.803 26.435) rotate(15.855)" fill="#fcfcfc" font-size="28" font-family="AnekTelugu-Medium, Anek Telugu" font-weight="500"><tspan x="0" y="0">t</tspan></text>
    </g>
  </g>
  <text id="_3" data-name=" " transform="matrix(0.941, 0.339, -0.339, 0.941, 203.142, 29.753)" fill="#fcfcfc" font-size="28" font-family="AnekTelugu-Medium, Anek Telugu" font-weight="500"><tspan x="0" y="0"> </tspan></text>
  <text id="_." data-name="." transform="translate(209.849 32.198) rotate(22.587)" fill="#fcfcfc" font-size="28" font-family="AnekTelugu-Medium, Anek Telugu" font-weight="500"><tspan x="0" y="0">.</tspan></text>
  <text id="O-4" data-name="O" transform="translate(214.838 33.997) rotate(27.295)" fill="#fcfcfc" font-size="28" font-family="AnekTelugu-Medium, Anek Telugu" font-weight="500"><tspan x="0" y="0">O</tspan></text>
  <text id="R-2" data-name="R" transform="translate(230.975 41.242) rotate(34.483)" fill="#fcfcfc" font-size="27" font-family="AnekTelugu-Medium, Anek Telugu" font-weight="500"><tspan x="0" y="0">R</tspan></text>
  <text id="G" transform="translate(244.232 51.547) rotate(41.541)" fill="#fcfcfc" font-size="28" font-family="AnekTelugu-Medium, Anek Telugu" font-weight="500"><tspan x="0" y="0">G</tspan></text>
  <text id="_4" data-name=" " transform="translate(257.094 63.265) rotate(46.606)" fill="#fcfcfc" font-size="28" font-family="AnekTelugu-Medium, Anek Telugu" font-weight="500"><tspan x="0" y="0"> </tspan></text>
  <text id="D" transform="matrix(0.62, 0.785, -0.785, 0.62, 262.063, 68.2)" fill="#fcfcfc" font-size="28" font-family="AnekTelugu-Medium, Anek Telugu" font-weight="500"><tspan x="0" y="0">D</tspan></text>
  <text id="o-5" data-name="o" transform="translate(273.624 81.344) rotate(58.49)" fill="#fcfcfc" font-size="27" font-family="AnekTelugu-Medium, Anek Telugu" font-weight="500"><tspan x="0" y="0">o</tspan></text>
  <text id="m-2" data-name="m" transform="matrix(0.396, 0.918, -0.918, 0.396, 280.985, 94.686)" fill="#fcfcfc" font-size="28" font-family="AnekTelugu-Medium, Anek Telugu" font-weight="500"><tspan x="0" y="0">m</tspan></text>
  <g id="Group_31" data-name="Group 31">
    <g id="Group_30" data-name="Group 30" clip-path="url(#clip-path)">
      <text id="a-2" data-name="a" transform="translate(291.069 116.396) rotate(74.702)" fill="#fcfcfc" font-size="27" font-family="AnekTelugu-Medium, Anek Telugu" font-weight="500"><tspan x="0" y="0">a</tspan></text>
      <text id="i" transform="translate(296.754 130.273) rotate(79.17)" fill="#fcfcfc" font-size="25" font-family="AnekTelugu-Medium, Anek Telugu" font-weight="500"><tspan x="0" y="0">i</tspan></text>
      <text id="n-2" data-name="n" transform="translate(296.213 137.168) rotate(83.851)" fill="#fcfcfc" font-size="27" font-family="AnekTelugu-Medium, Anek Telugu" font-weight="500"><tspan x="0" y="0">n</tspan></text>
      <text id="s" transform="matrix(0.016, 1, -1, 0.016, 298.737, 152.787)" fill="#fcfcfc" font-size="26" font-family="AnekTelugu-Medium, Anek Telugu" font-weight="500"><tspan x="0" y="0">s</tspan></text>
      <text id="_5" data-name=" " transform="matrix(-0.069, 0.998, -0.998, -0.069, 296.747, 166.029)" fill="#fcfcfc" font-size="28" font-family="AnekTelugu-Medium, Anek Telugu" font-weight="500"><tspan x="0" y="0"> </tspan></text>
      <text id="_6" data-name=" " transform="matrix(-0.12, 0.993, -0.993, -0.12, 296.248, 173.13)" fill="#fcfcfc" font-size="28" font-family="AnekTelugu-Medium, Anek Telugu" font-weight="500"><tspan x="0" y="0"> </tspan></text>
      <text id="_7" data-name=" " transform="translate(295.381 180.196) rotate(99.886)" fill="#fcfcfc" font-size="28" font-family="AnekTelugu-Medium, Anek Telugu" font-weight="500"><tspan x="0" y="0"> </tspan></text>
      <text id="_8" data-name=" " transform="translate(294.15 187.202) rotate(102.876)" fill="#fcfcfc" font-size="28" font-family="AnekTelugu-Medium, Anek Telugu" font-weight="500"><tspan x="0" y="0"> </tspan></text>
      <text id="K-2" data-name="K" transform="translate(292.783 194.085) rotate(107.876)" fill="#fcfcfc" font-size="28" font-family="AnekTelugu-Medium, Anek Telugu" font-weight="500"><tspan x="0" y="0">K</tspan></text>
    </g>
  </g>
  <text id="n-3" data-name="n" transform="matrix(-0.415, 0.91, -0.91, -0.415, 288.697, 209.943)" fill="#fcfcfc" font-size="27" font-family="AnekTelugu-Medium, Anek Telugu" font-weight="500"><tspan x="0" y="0">n</tspan></text>
  <text id="o-6" data-name="o" transform="translate(282.13 224.288) rotate(120.981)" fill="#fcfcfc" font-size="27" font-family="AnekTelugu-Medium, Anek Telugu" font-weight="500"><tspan x="0" y="0">o</tspan></text>
  <text id="w-2" data-name="w" transform="translate(273.827 236.632) rotate(128.548)" fill="#fcfcfc" font-size="28" font-family="AnekTelugu-Medium, Anek Telugu" font-weight="500"><tspan x="0" y="0">w</tspan></text>
  <text id="_9" data-name=" " transform="translate(259.833 253.548) rotate(134.552)" fill="#fcfcfc" font-size="28" font-family="AnekTelugu-Medium, Anek Telugu" font-weight="500"><tspan x="0" y="0"> </tspan></text>
  <text id="M-3" data-name="M" transform="translate(255.226 258.771) rotate(140.543)" fill="#fcfcfc" font-size="28" font-family="AnekTelugu-Medium, Anek Telugu" font-weight="500"><tspan x="0" y="0">M</tspan></text>
  <text id="o-7" data-name="o" transform="matrix(-0.85, 0.526, -0.526, -0.85, 238.822, 273.267)" fill="#fcfcfc" font-size="27" font-family="AnekTelugu-Medium, Anek Telugu" font-weight="500"><tspan x="0" y="0">o</tspan></text>
  <text id="r-3" data-name="r" transform="matrix(-0.897, 0.442, -0.442, -0.897, 225.18, 280.405)" fill="#fcfcfc" font-size="28" font-family="AnekTelugu-Medium, Anek Telugu" font-weight="500"><tspan x="0" y="0">r</tspan></text>
  <text id="e-2" data-name="e" transform="translate(215.966 286.158) rotate(159.041)" fill="#fcfcfc" font-size="27" font-family="AnekTelugu-Medium, Anek Telugu" font-weight="500"><tspan x="0" y="0">e</tspan></text>
  <g id="Group_33" data-name="Group 33">
    <g id="Group_32" data-name="Group 32" clip-path="url(#clip-path)">
      <text id="_10" data-name=" " transform="translate(201.719 290.365) rotate(163.639)" fill="#fcfcfc" font-size="28" font-family="AnekTelugu-Medium, Anek Telugu" font-weight="500"><tspan x="0" y="0"> </tspan></text>
      <text id="A-3" data-name="A" transform="translate(195.259 293.521) rotate(168.716)" fill="#fcfcfc" font-size="27" font-family="AnekTelugu-Medium, Anek Telugu" font-weight="500"><tspan x="0" y="0">A</tspan></text>
      <text id="b-2" data-name="b" transform="translate(178.435 296.822) rotate(175.564)" fill="#fcfcfc" font-size="27" font-family="AnekTelugu-Medium, Anek Telugu" font-weight="500"><tspan x="0" y="0">b</tspan></text>
      <text id="o-8" data-name="o" transform="translate(162.575 298.022) rotate(-178.038)" fill="#fcfcfc" font-size="27" font-family="AnekTelugu-Medium, Anek Telugu" font-weight="500"><tspan x="0" y="0">o</tspan></text>
      <text id="u-2" data-name="u" transform="matrix(-0.989, -0.146, 0.146, -0.989, 147.175, 297.491)" fill="#fcfcfc" font-size="27" font-family="AnekTelugu-Medium, Anek Telugu" font-weight="500"><tspan x="0" y="0">u</tspan></text>
      <text id="t-2" data-name="t" transform="translate(131.764 294.092) rotate(-165.834)" fill="#fcfcfc" font-size="28" font-family="AnekTelugu-Medium, Anek Telugu" font-weight="500"><tspan x="0" y="0">t</tspan></text>
      <text id="_11" data-name=" " transform="matrix(-0.95, -0.311, 0.311, -0.95, 120.326, 291.108)" fill="#fcfcfc" font-size="28" font-family="AnekTelugu-Medium, Anek Telugu" font-weight="500"><tspan x="0" y="0"> </tspan></text>
    </g>
  </g>
  <text id="_.-2" data-name="." transform="translate(113.545 288.86) rotate(-159.096)" fill="#fcfcfc" font-size="28" font-family="AnekTelugu-Medium, Anek Telugu" font-weight="500"><tspan x="0" y="0">.</tspan></text>
  <text id="O-9" data-name="O" transform="translate(108.505 287.208) rotate(-154.382)" fill="#fcfcfc" font-size="28" font-family="AnekTelugu-Medium, Anek Telugu" font-weight="500"><tspan x="0" y="0">O</tspan></text>
  <text id="R-4" data-name="R" transform="matrix(-0.84, -0.542, 0.542, -0.84, 92.162, 280.438)" fill="#fcfcfc" font-size="27" font-family="AnekTelugu-Medium, Anek Telugu" font-weight="500"><tspan x="0" y="0">R</tspan></text>
  <text id="G-2" data-name="G" transform="matrix(-0.767, -0.641, 0.641, -0.767, 78.622, 270.53)" fill="#fcfcfc" font-size="28" font-family="AnekTelugu-Medium, Anek Telugu" font-weight="500"><tspan x="0" y="0">G</tspan></text>
  <text id="_12" data-name=" " transform="translate(65.413 259.183) rotate(-135.053)" fill="#fcfcfc" font-size="28" font-family="AnekTelugu-Medium, Anek Telugu" font-weight="500"><tspan x="0" y="0"> </tspan></text>
  <text id="D-2" data-name="D" transform="matrix(-0.643, -0.766, 0.766, -0.643, 60.315, 254.404)" fill="#fcfcfc" font-size="28" font-family="AnekTelugu-Medium, Anek Telugu" font-weight="500"><tspan x="0" y="0">D</tspan></text>
  <text id="o-10" data-name="o" transform="matrix(-0.547, -0.837, 0.837, -0.547, 48.369, 241.594)" fill="#fcfcfc" font-size="27" font-family="AnekTelugu-Medium, Anek Telugu" font-weight="500"><tspan x="0" y="0">o</tspan></text>
  <text id="m-4" data-name="m" transform="matrix(-0.423, -0.906, 0.906, -0.423, 40.628, 228.48)" fill="#fcfcfc" font-size="28" font-family="AnekTelugu-Medium, Anek Telugu" font-weight="500"><tspan x="0" y="0">m</tspan></text>
  <g id="Group_35" data-name="Group 35">
    <g id="Group_34" data-name="Group 34" clip-path="url(#clip-path)">
      <text id="a-4" data-name="a" transform="translate(29.905 207.067) rotate(-106.983)" fill="#fcfcfc" font-size="27" font-family="AnekTelugu-Medium, Anek Telugu" font-weight="500"><tspan x="0" y="0">a</tspan></text>
      <text id="i-2" data-name="i" transform="matrix(-0.217, -0.976, 0.976, -0.217, 23.811, 193.352)" fill="#fcfcfc" font-size="25" font-family="AnekTelugu-Medium, Anek Telugu" font-weight="500"><tspan x="0" y="0">i</tspan></text>
      <text id="n-4" data-name="n" transform="translate(24.153 186.455) rotate(-97.82)" fill="#fcfcfc" font-size="27" font-family="AnekTelugu-Medium, Anek Telugu" font-weight="500"><tspan x="0" y="0">n</tspan></text>
      <text id="s-2" data-name="s" transform="matrix(-0.032, -0.999, 0.999, -0.032, 21.091, 170.828)" fill="#fcfcfc" font-size="26" font-family="AnekTelugu-Medium, Anek Telugu" font-weight="500"><tspan x="0" y="0">s</tspan></text>
      <path id="Path_18" data-name="Path 18" d="M39.646,275.907a4.317,4.317,0,1,1-4.317-4.317,4.317,4.317,0,0,1,4.317,4.317" transform="translate(-15.187 -133)" fill="#fcfcfc"/>
    </g>
  </g>
</svg>
