<svg xmlns="http://www.w3.org/2000/svg" width="53.914" height="31.45" viewBox="0 0 53.914 31.45">
  <g id="Icon_ionic-ios-menu" data-name="Icon ionic-ios-menu" transform="translate(-4.5 -10.125)">
    <path id="Path_1" data-name="Path 1" d="M56.168,14.618H6.746A2.253,2.253,0,0,1,4.5,12.371h0a2.253,2.253,0,0,1,2.246-2.246H56.168a2.253,2.253,0,0,1,2.246,2.246h0A2.253,2.253,0,0,1,56.168,14.618Z" transform="translate(0)" fill="#fff"/>
    <path id="Path_2" data-name="Path 2" d="M56.168,21.368H6.746A2.253,2.253,0,0,1,4.5,19.121h0a2.253,2.253,0,0,1,2.246-2.246H56.168a2.253,2.253,0,0,1,2.246,2.246h0A2.253,2.253,0,0,1,56.168,21.368Z" transform="translate(0 6.729)" fill="#fff"/>
    <path id="Path_3" data-name="Path 3" d="M56.168,28.118H6.746A2.253,2.253,0,0,1,4.5,25.871h0a2.253,2.253,0,0,1,2.246-2.246H56.168a2.253,2.253,0,0,1,2.246,2.246h0A2.253,2.253,0,0,1,56.168,28.118Z" transform="translate(0 13.457)" fill="#fff"/>
  </g>
</svg>
