<svg id="Group_39" data-name="Group 39" xmlns="http://www.w3.org/2000/svg" xmlns:xlink="http://www.w3.org/1999/xlink" width="37.084" height="30.866" viewBox="0 0 37.084 30.866">
  <defs>
    <clipPath id="clip-path">
      <rect id="Rectangle_59" data-name="Rectangle 59" width="37.084" height="30.866" fill="none"/>
    </clipPath>
  </defs>
  <g id="Group_38" data-name="Group 38" clip-path="url(#clip-path)">
    <path id="Path_20" data-name="Path 20" d="M16.2,3.178l-.109.006a3.179,3.179,0,0,0-.558.1,19.86,19.86,0,0,0-2.541.848A17.816,17.816,0,0,0,10.56,5.4c-.476.293-.922.63-1.367.966A16.2,16.2,0,0,0,6.5,8.959,14.479,14.479,0,0,0,5.321,10.6a17.792,17.792,0,0,0-1.259,2.312,16.749,16.749,0,0,0-.746,2,19.749,19.749,0,0,0-.486,2.2c-.078.471-.106.946-.157,1.419-.016.146.036.2.181.186.169-.011.34,0,.509,0,.113,0,.163.029.162.154q-.008.928,0,1.856c0,.125-.037.172-.166.171q-.928-.007-1.856,0c-.114,0-.162-.03-.161-.153q.008-.937,0-1.874c0-.126.052-.156.164-.152.176.005.352,0,.528,0,.1,0,.139-.037.143-.139.01-.266.043-.529.075-.793.066-.54.148-1.077.256-1.611a19.021,19.021,0,0,1,.639-2.329A13.97,13.97,0,0,1,3.945,12a17.128,17.128,0,0,1,1.4-2.35A16.47,16.47,0,0,1,6.5,8.211,18.764,18.764,0,0,1,8.21,6.517c.447-.375.9-.738,1.377-1.077a13.347,13.347,0,0,1,1.469-.919,16.8,16.8,0,0,1,1.983-.945c.374-.141.744-.292,1.116-.438a.023.023,0,0,0,.02,0c.71-.223,1.443-.36,2.158-.564a.157.157,0,0,0-.093-.029q-3.813,0-7.626,0a.2.2,0,0,0-.2.132.737.737,0,0,1-1.068.268.744.744,0,0,1-.272-.793.722.722,0,0,1,.685-.525.672.672,0,0,1,.662.476c.041.152.126.2.286.2q3.758-.009,7.516-.006c.746,0,1.492-.006,2.239,0,.172,0,.223-.055.211-.22-.013-.193,0-.388,0-.582,0-.1.024-.154.142-.154.631,0,1.262,0,1.893,0,.1,0,.143.035.14.138,0,.188,0,.376,0,.564,0,.248,0,.248.248.248q4.45,0,8.9,0c.165,0,.327.023.305-.224,0-.023.03-.048.044-.074a1.5,1.5,0,0,1,.329-.357h.009a.744.744,0,0,1,1.039.781.7.7,0,0,1-.552.6.655.655,0,0,1-.77-.328.253.253,0,0,0-.255-.153q-3.576.008-7.152.007c-.051,0-.107-.017-.162.028a.317.317,0,0,0,.188.089,7.706,7.706,0,0,1,1.017.216c.2.05.392.138.591.183a8.058,8.058,0,0,1,.868.27c.494.171.974.38,1.451.6.551.253,1.076.549,1.607.835a10.9,10.9,0,0,1,1.195.8,17.831,17.831,0,0,1,2.31,1.983A17.6,17.6,0,0,1,33.78,9.6a16.875,16.875,0,0,1,1.5,2.513q.4.825.711,1.682c.158.433.3.871.426,1.314a11.6,11.6,0,0,1,.346,1.583c.041.315.112.626.17.939a.118.118,0,0,0,.006.107c.069.267-.009.542.052.813.026.117.049.17.175.166.218-.007.437,0,.655,0,.1,0,.139.037.139.14q0,.946,0,1.892c0,.1-.024.148-.131.147q-.955,0-1.911,0c-.1,0-.14-.038-.139-.14q0-.946,0-1.892c0-.113.045-.15.151-.147.133,0,.268-.008.4,0s.186-.031.171-.17c-.035-.345-.061-.691-.109-1.035a20.079,20.079,0,0,0-.4-2.049,17.033,17.033,0,0,0-1.016-2.835,15.893,15.893,0,0,0-1.325-2.34A14.848,14.848,0,0,0,32.707,9,15.668,15.668,0,0,0,31.45,7.628a16.2,16.2,0,0,0-2.35-1.9,10.222,10.222,0,0,0-.987-.613.7.7,0,0,0-.262-.149,11.2,11.2,0,0,0-1.716-.842c-.35-.139-.7-.282-1.053-.409a2.864,2.864,0,0,0-.623-.185.146.146,0,0,0-.112-.037c-.1-.068-.222-.045-.33-.077a16.654,16.654,0,0,0-1.633-.388c-.451-.085-.908-.1-1.36-.167-.137-.021-.192.023-.182.162.007.109,0,.219,0,.327s-.032.176-.162.175q-.937-.006-1.873,0c-.115,0-.149-.045-.144-.151.005-.127-.005-.255,0-.382s-.037-.176-.167-.161c-.223.025-.447.042-.67.058a6.463,6.463,0,0,0-1.636.292" transform="translate(-1.11 -1.109)" fill="#fff"/>
    <path id="Path_21" data-name="Path 21" d="M16.2,3.178l-.109.006a3.179,3.179,0,0,0-.558.1,19.86,19.86,0,0,0-2.541.848A17.816,17.816,0,0,0,10.56,5.4c-.476.293-.922.63-1.367.966A16.2,16.2,0,0,0,6.5,8.959,14.479,14.479,0,0,0,5.321,10.6a17.792,17.792,0,0,0-1.259,2.312,16.749,16.749,0,0,0-.746,2,19.749,19.749,0,0,0-.486,2.2c-.078.471-.106.946-.157,1.419-.016.146.036.2.181.186.169-.011.34,0,.509,0,.113,0,.163.029.162.154q-.008.928,0,1.856c0,.125-.037.172-.166.171q-.928-.007-1.856,0c-.114,0-.162-.03-.161-.153q.008-.937,0-1.874c0-.126.052-.156.164-.152.176.005.352,0,.528,0,.1,0,.139-.037.143-.139.01-.266.043-.529.075-.793.066-.54.148-1.077.256-1.611a19.021,19.021,0,0,1,.639-2.329A13.97,13.97,0,0,1,3.945,12a17.128,17.128,0,0,1,1.4-2.35A16.47,16.47,0,0,1,6.5,8.211,18.764,18.764,0,0,1,8.21,6.517c.447-.375.9-.738,1.377-1.077a13.347,13.347,0,0,1,1.469-.919,16.8,16.8,0,0,1,1.983-.945c.374-.141.744-.292,1.116-.438a.023.023,0,0,0,.02,0c.71-.223,1.443-.36,2.158-.564a.157.157,0,0,0-.093-.029q-3.813,0-7.626,0a.2.2,0,0,0-.2.132.737.737,0,0,1-1.068.268.744.744,0,0,1-.272-.793.722.722,0,0,1,.685-.525.672.672,0,0,1,.662.476c.041.152.126.2.286.2q3.758-.009,7.516-.006c.746,0,1.492-.006,2.239,0,.172,0,.223-.055.211-.22-.013-.193,0-.388,0-.582,0-.1.024-.154.142-.154.631,0,1.262,0,1.893,0,.1,0,.143.035.14.138,0,.188,0,.376,0,.564,0,.248,0,.248.248.248q4.45,0,8.9,0c.165,0,.327.023.305-.224,0-.023.03-.048.044-.074a1.5,1.5,0,0,1,.329-.357h.009a.744.744,0,0,1,1.039.781.7.7,0,0,1-.552.6.655.655,0,0,1-.77-.328.253.253,0,0,0-.255-.153q-3.576.008-7.152.007c-.051,0-.107-.017-.162.028a.317.317,0,0,0,.188.089,7.706,7.706,0,0,1,1.017.216c.2.05.392.138.591.183a8.058,8.058,0,0,1,.868.27c.494.171.974.38,1.451.6.551.253,1.076.549,1.607.835a10.9,10.9,0,0,1,1.195.8,17.831,17.831,0,0,1,2.31,1.983A17.6,17.6,0,0,1,33.78,9.6a16.875,16.875,0,0,1,1.5,2.513q.4.825.711,1.682c.158.433.3.871.426,1.314a11.6,11.6,0,0,1,.346,1.583c.041.315.112.626.17.939a.118.118,0,0,0,.006.107c.069.267-.009.542.052.813.026.117.049.17.175.166.218-.007.437,0,.655,0,.1,0,.139.037.139.14q0,.946,0,1.892c0,.1-.024.148-.131.147q-.955,0-1.911,0c-.1,0-.14-.038-.139-.14q0-.946,0-1.892c0-.113.045-.15.151-.147.133,0,.268-.008.4,0s.186-.031.171-.17c-.035-.345-.061-.691-.109-1.035a20.079,20.079,0,0,0-.4-2.049,17.033,17.033,0,0,0-1.016-2.835,15.893,15.893,0,0,0-1.325-2.34A14.848,14.848,0,0,0,32.707,9,15.668,15.668,0,0,0,31.45,7.628a16.2,16.2,0,0,0-2.35-1.9,10.222,10.222,0,0,0-.987-.613.7.7,0,0,0-.262-.149,11.2,11.2,0,0,0-1.716-.842c-.35-.139-.7-.282-1.053-.409a2.864,2.864,0,0,0-.623-.185.146.146,0,0,0-.112-.037c-.1-.068-.222-.045-.33-.077a16.654,16.654,0,0,0-1.633-.388c-.451-.085-.908-.1-1.36-.167-.137-.021-.192.023-.182.162.007.109,0,.219,0,.327s-.032.176-.162.175q-.937-.006-1.873,0c-.115,0-.149-.045-.144-.151.005-.127-.005-.255,0-.382s-.037-.176-.167-.161c-.223.025-.447.042-.67.058A6.463,6.463,0,0,0,16.2,3.178Z" transform="translate(-1.11 -1.109)" fill="none" stroke="#fff" stroke-width="2.684"/>
    <path id="Path_22" data-name="Path 22" d="M79.035,48.454H78.9l-3.219,0H71.626a.584.584,0,0,1-.613-.4c-.185-.531-.351-.994-.507-1.417-.238-.643-.5-1.342-.822-2.2-.074-.2-.15-.392-.226-.588-.066-.171-.132-.341-.2-.512-.073-.192-.143-.388-.211-.577-.057-.159-.114-.319-.173-.477-.035-.092-.072-.184-.109-.276a4.227,4.227,0,0,1-.291-.917,3.112,3.112,0,0,1,.1-1.543c.117-.337.241-.677.361-1.006l.077-.212c.14-.385.287-.774.429-1.15q.108-.288.216-.576c.132-.352.271-.707.406-1.05.1-.249.2-.5.292-.749.224-.586.463-1.212.7-1.845q.206-.547.41-1.1.245-.656.492-1.312.366-.966.734-1.931l.453-1.19q.058-.152.117-.3c.113-.29.22-.564.309-.846a.568.568,0,0,1,.594-.426h.008l.179,0c.176,0,.341.005.5,0a.608.608,0,0,1,.467.148.523.523,0,0,1,.045.05.5.5,0,0,1,.046-.05.587.587,0,0,1,.455-.146c.231.012.462.008.657,0a.574.574,0,0,1,.581.39l.177.485c.195.534.4,1.087.59,1.633l.077.218c.085.242.173.492.267.73s.187.5.273.746c.1.276.2.562.309.833.121.3.229.6.333.9q.06.168.12.336.115.318.229.637.16.446.322.891.37,1.015.745,2.028l.07.189c.073.2.148.4.222.594.165.438.336.891.488,1.346.12.358.261.739.458,1.233a4,4,0,0,1,.312,1.453,4.221,4.221,0,0,1-.321,1.488l-.072.2q-.24.668-.477,1.337l-.068.194c-.069.2-.141.407-.225.612-.059.143-.106.3-.155.458-.04.13-.081.264-.13.4-.336.918-.661,1.842-.965,2.71-.019.054-.031.1-.04.13a.532.532,0,0,1-.613.436m-6.65-.806h3.3l3.219,0h.022l.01-.029c.3-.871.63-1.8.968-2.721.042-.115.078-.233.117-.359.053-.172.107-.349.18-.526s.14-.372.209-.571l.069-.2q.237-.671.479-1.341l.072-.2A3.558,3.558,0,0,0,81.3,40.5a3.169,3.169,0,0,0-.255-1.163c-.2-.508-.348-.9-.473-1.275-.147-.44-.315-.886-.478-1.317-.075-.2-.151-.4-.225-.6l-.07-.189q-.374-1.015-.746-2.03-.163-.447-.323-.9-.114-.318-.229-.635c-.041-.113-.081-.227-.122-.341-.1-.286-.206-.581-.32-.862s-.222-.584-.322-.869c-.084-.238-.171-.484-.263-.719-.1-.251-.189-.509-.277-.757l-.076-.216c-.193-.543-.393-1.093-.588-1.626l-.126-.345c-.114,0-.236,0-.363,0,0,1.373,0,2.765,0,4.113l0,2.616c0,1.36,0,2.766-.008,4.149v.01a1.5,1.5,0,0,1,.949,1.39,1.562,1.562,0,0,1-.441,1.17,1.667,1.667,0,0,1-1.2.543h-.015a1.731,1.731,0,0,1-1.518-1.125,1.635,1.635,0,0,1,.657-1.884.507.507,0,0,1,.229-.107c0-.02,0-.047-.006-.082a2.21,2.21,0,0,1,0-.379c0-.033,0-.065.006-.1a2.194,2.194,0,0,1,0-.508c-.021-.6-.021-1.2,0-1.786v-.006a1.047,1.047,0,0,1-.01-.134q0-3.048,0-6.1a1.214,1.214,0,0,1,.01-.143l0-.018q0-.24,0-.48c0-.374-.007-.76-.005-1.143-.119,0-.236,0-.35,0h-.049c-.088.26-.186.514-.282.76-.039.1-.077.2-.115.3L73.443,28.9q-.367.964-.733,1.929-.247.654-.491,1.309-.2.549-.411,1.1c-.239.635-.479,1.262-.7,1.849-.1.252-.2.5-.294.756-.134.34-.272.691-.4,1.037q-.108.289-.217.578c-.141.374-.287.761-.425,1.142l-.078.212c-.119.326-.242.662-.357.994a2.338,2.338,0,0,0-.064,1.154,3.587,3.587,0,0,0,.243.744c.04.1.08.2.117.3.06.162.119.325.177.488.066.185.135.377.2.561q.1.254.2.507c.077.2.153.4.228.594.324.858.586,1.558.824,2.2.144.391.3.815.465,1.294h.663M74.92,38.3a.813.813,0,0,0-.342,1,.945.945,0,0,0,.756.547h.007a.878.878,0,0,0,.619-.29.762.762,0,0,0,.226-.563.708.708,0,0,0-.462-.71.758.758,0,0,1-.361-.269.726.726,0,0,1-.444.289" transform="translate(-56.606 -21.383)" fill="#fff"/>
    <path id="Path_23" data-name="Path 23" d="M78.2,47.8h-.135l-3.219,0H70.795a.749.749,0,0,1-.777-.517c-.185-.529-.35-.992-.506-1.414-.237-.642-.5-1.34-.822-2.2-.071-.189-.144-.378-.217-.566l-.008-.02q-.1-.257-.2-.513c-.073-.192-.143-.386-.21-.575l0-.012c-.056-.156-.112-.313-.17-.468-.031-.083-.065-.166-.1-.249l-.009-.023a4.376,4.376,0,0,1-.3-.955,3.283,3.283,0,0,1,.106-1.628c.121-.35.255-.715.362-1.008l.077-.212c.135-.371.276-.745.413-1.108l.017-.045q.108-.288.216-.576c.131-.35.269-.7.4-1.043.1-.259.2-.508.295-.757.224-.586.463-1.211.7-1.844q.195-.517.388-1.034l.023-.06q.245-.656.492-1.313.366-.966.734-1.931l.453-1.19c.039-.1.078-.2.117-.3.112-.288.217-.559.3-.835a.744.744,0,0,1,.76-.547l.19,0c.172,0,.334.005.492,0a.8.8,0,0,1,.522.134.78.78,0,0,1,.51-.133c.222.012.45.008.643,0a.752.752,0,0,1,.75.5l.181.5c.194.531.394,1.081.587,1.623l.077.219c.084.24.172.489.265.725.1.253.189.506.275.751.1.273.2.556.306.826.123.3.231.607.336.9l.016.045q.052.146.1.291.115.318.229.638l.025.07q.147.41.3.82.37,1.014.745,2.027l.07.189q.1.279.209.558l.013.035c.166.439.337.892.491,1.352.119.357.259.734.454,1.224a4.166,4.166,0,0,1,.324,1.515,4.361,4.361,0,0,1-.331,1.548l-.072.2q-.24.667-.477,1.336l-.067.193c-.07.2-.142.411-.228.621-.056.136-.1.285-.15.443-.038.125-.082.266-.133.407-.338.923-.662,1.844-.964,2.707-.017.048-.028.087-.036.117a.706.706,0,0,1-.781.565m-6.67-.353h3.317l3.219,0H78.2c.243,0,.367-.031.446-.31.011-.039.024-.084.044-.14.3-.865.626-1.787.965-2.712.049-.133.091-.269.128-.39.051-.166.1-.322.161-.473.082-.2.153-.406.221-.6l.068-.195q.236-.67.477-1.338l.072-.2a4.069,4.069,0,0,0,.311-1.428,3.824,3.824,0,0,0-.3-1.39c-.2-.5-.34-.879-.461-1.242-.152-.454-.322-.9-.486-1.34l-.013-.035c-.07-.187-.141-.373-.21-.56l-.07-.189q-.374-1.014-.745-2.028-.15-.41-.3-.822l-.026-.071q-.114-.318-.229-.637-.053-.146-.1-.293l-.016-.044c-.1-.293-.211-.6-.33-.889-.113-.278-.214-.564-.312-.841-.085-.242-.174-.492-.271-.739s-.183-.493-.269-.736l-.077-.218c-.192-.541-.392-1.089-.586-1.62l-.181-.5A.408.408,0,0,0,75.7,25.2c-.2.006-.437.01-.672,0a.415.415,0,0,0-.326.1.314.314,0,0,0-.03.033l-.136.168-.135-.168a.359.359,0,0,0-.03-.033.429.429,0,0,0-.336-.1c-.17.009-.339.007-.517,0l-.178,0a.4.4,0,0,0-.434.3c-.091.287-.2.563-.312.855-.04.1-.079.2-.117.3l-.453,1.19q-.368.965-.734,1.931-.248.655-.492,1.311l-.022.06q-.194.518-.388,1.035c-.239.634-.478,1.259-.7,1.846-.1.25-.194.5-.292.75-.137.349-.275.7-.4,1.047l-.217.576-.017.044c-.136.362-.277.735-.411,1.1l-.077.212c-.107.292-.24.656-.36,1a2.942,2.942,0,0,0-.091,1.459,4.1,4.1,0,0,0,.28.879l.009.023c.035.086.069.172.1.258.059.157.115.315.172.473l-.159.071.164-.059c.067.186.136.379.207.568q.1.256.2.511l.008.02c.073.189.147.379.219.569.324.857.585,1.556.823,2.2.157.424.323.888.509,1.42a.41.41,0,0,0,.448.284h.739M78.216,47h-.148l-3.219,0H70.766l-.041-.117c-.167-.476-.319-.9-.464-1.291-.242-.656-.5-1.355-.824-2.2-.075-.2-.151-.4-.228-.593-.066-.169-.131-.339-.2-.509-.071-.186-.14-.378-.206-.565-.058-.162-.116-.325-.176-.486-.036-.1-.076-.194-.115-.292a3.722,3.722,0,0,1-.253-.781,2.5,2.5,0,0,1,.072-1.238c.116-.334.239-.671.358-1l.077-.212c.139-.382.285-.769.426-1.144q.109-.289.217-.578c.133-.356.276-.719.4-1.04.1-.251.2-.5.293-.754.225-.587.464-1.213.7-1.848q.207-.548.411-1.1.245-.655.491-1.31.344-.908.69-1.815l.043-.114.453-1.191c.033-.087.067-.174.1-.26l.015-.038c.1-.249.194-.5.279-.752l.041-.121.176,0c.113,0,.229,0,.346,0l.177,0v.177c0,.382,0,.767.005,1.139v.082q0,.2,0,.4v.01l0,.03a1.031,1.031,0,0,0-.009.123q0,3.049,0,6.1a.863.863,0,0,0,.009.112l0,.034c-.021.584-.021,1.18,0,1.773v.013l0,.013a2.008,2.008,0,0,0,0,.468l0,.014v.014c0,.029,0,.059,0,.088v.013a2.035,2.035,0,0,0,0,.35c0,.042.006.074.007.1l0,.147-.145.027a.331.331,0,0,0-.149.07,1.464,1.464,0,0,0-.6,1.7,1.564,1.564,0,0,0,1.352,1h.013a1.5,1.5,0,0,0,1.076-.488,1.389,1.389,0,0,0,.394-1.038,1.328,1.328,0,0,0-.841-1.242l-.109-.044v-.117c.008-1.413.008-2.871.008-4.158l0-2.616c0-1.348,0-2.739,0-4.112v-.177l.177,0c.124,0,.244,0,.356,0l.124,0,.177.485c.192.526.39,1.069.58,1.6l.08.228c.086.244.174.5.271.74s.18.483.264.721c.1.291.205.582.321.865s.221.582.323.869l.014.039c.036.1.071.2.107.3q.115.318.229.636l.025.069q.148.413.3.825.371,1.016.746,2.03l.069.189c.072.195.145.389.219.584l.006.015c.163.432.332.88.48,1.323.124.369.268.76.469,1.266a3.339,3.339,0,0,1,.267,1.226,3.7,3.7,0,0,1-.284,1.271l-.072.2q-.241.67-.479,1.34l-.069.2c-.071.206-.136.393-.213.58-.069.169-.123.343-.174.511-.041.134-.077.252-.12.368-.338.923-.663,1.849-.967,2.718Zm-6.664-.352h3.3l3.117,0c.3-.844.611-1.741.938-2.635.04-.108.074-.221.112-.341.057-.184.112-.365.188-.549s.136-.361.2-.554c.026-.074.049-.141.072-.207q.237-.672.479-1.342l.072-.2a3.416,3.416,0,0,0,.264-1.151,3,3,0,0,0-.243-1.1c-.2-.512-.351-.908-.476-1.284-.146-.438-.314-.881-.476-1.311l-.006-.015c-.074-.2-.147-.391-.22-.586l-.069-.189q-.374-1.015-.746-2.031-.151-.413-.3-.827l-.025-.07q-.114-.318-.228-.635c-.037-.1-.072-.2-.108-.3l-.014-.039c-.1-.283-.2-.576-.317-.854s-.222-.585-.323-.87c-.087-.245-.172-.488-.263-.72-.1-.25-.188-.505-.275-.751l-.08-.227c-.189-.534-.387-1.076-.579-1.6L75.456,26h-.068c0,1.316,0,2.647,0,3.938l0,2.616c0,1.255,0,2.674-.008,4.045a1.666,1.666,0,0,1,.948,1.491,1.737,1.737,0,0,1-.487,1.3,1.844,1.844,0,0,1-1.33.6h-.015a1.893,1.893,0,0,1-1.685-1.25,1.81,1.81,0,0,1,.714-2.066.682.682,0,0,1,.156-.1,2.6,2.6,0,0,1,.006-.348v-.014c0-.023,0-.045,0-.068a2.363,2.363,0,0,1,0-.521c-.02-.592-.02-1.188,0-1.771a1.172,1.172,0,0,1-.01-.148q0-3.049,0-6.1a1.385,1.385,0,0,1,.011-.163c0-.131,0-.265,0-.4v-.08c0-.318-.006-.645-.006-.971h-.1c-.077.219-.159.431-.24.638l-.018.047c-.033.086-.067.172-.1.258l-.454,1.191-.043.114q-.345.907-.69,1.815-.247.653-.491,1.308-.205.549-.411,1.1c-.239.635-.479,1.262-.7,1.85-.1.253-.2.5-.295.757-.126.32-.268.682-.4,1.035l-.217.579c-.141.374-.286.76-.425,1.14l-.078.213c-.118.325-.241.66-.356.991a2.168,2.168,0,0,0-.057,1.069,3.463,3.463,0,0,0,.232.706c.041.1.081.2.118.3.061.163.12.327.178.491.066.184.134.374.2.558s.13.338.2.507q.116.3.229.6c.32.848.582,1.548.825,2.2.134.362.273.75.425,1.18Zm2.956-7.452h-.016a1.111,1.111,0,0,1-.914-.672.976.976,0,0,1,.4-1.176l.032-.027.041-.01a.548.548,0,0,0,.341-.218l.142-.209.145.207a.592.592,0,0,0,.281.206.872.872,0,0,1,.572.86.937.937,0,0,1-.272.695,1.056,1.056,0,0,1-.746.345m-.338-1.559c-.331.293-.354.459-.258.79a.793.793,0,0,0,.591.421h0a.7.7,0,0,0,.5-.235.591.591,0,0,0,.179-.432c-.028-.384-.185-.5-.351-.561a1.021,1.021,0,0,1-.3-.173.942.942,0,0,1-.362.189" transform="translate(-55.773 -20.553)" fill="#fff"/>
    <path id="Path_24" data-name="Path 24" d="M91.083,160.072h-.008c-2.412-.006-4.919-.009-7.451-.008h0a.569.569,0,0,1-.42-.156.584.584,0,0,1-.153-.427c.007-.958.007-1.753,0-2.5a.584.584,0,0,1,.155-.428.6.6,0,0,1,.436-.156c.95,0,1.916,0,2.85,0h1.256v.007h.509c.911,0,1.852,0,2.777,0a.644.644,0,0,1,.474.166.632.632,0,0,1,.163.474c-.011.849-.008,1.7,0,2.427a.609.609,0,0,1-.158.445.593.593,0,0,1-.429.16m-6.252-.809c2.051,0,4.075,0,6.037.007,0-.632-.005-1.348,0-2.069-.872,0-1.756,0-2.611,0H86.95V157.2h-.455c-.865,0-1.757,0-2.64,0,0,.629,0,1.3,0,2.067h.979" transform="translate(-68.704 -129.379)" fill="#fff"/>
    <path id="Path_25" data-name="Path 25" d="M90.251,159.413h-.008c-2.393-.006-4.9-.009-7.451-.008a.707.707,0,0,1-.748-.758c.006-.955.007-1.75,0-2.5a.744.744,0,0,1,.206-.552.755.755,0,0,1,.556-.207h0c.908,0,1.829,0,2.724,0h1.557v.007h.336c.809,0,1.816,0,2.776,0a.821.821,0,0,1,.6.217.811.811,0,0,1,.214.6c-.011.851-.008,1.7,0,2.424a.766.766,0,0,1-.209.569.749.749,0,0,1-.553.211m-6.2-.355c2.117,0,4.194,0,6.191.008l.008.174v-.174a.424.424,0,0,0,.306-.109.44.44,0,0,0,.107-.321c0-.723-.008-1.577,0-2.431a.464.464,0,0,0-.112-.349.471.471,0,0,0-.346-.115c-.965.006-1.973,0-2.782,0h-.683v-.007h-1.21c-.895,0-1.817,0-2.724,0a.426.426,0,0,0-.312.105.414.414,0,0,0-.1.3c0,.752,0,1.548,0,2.505a.415.415,0,0,0,.1.3.4.4,0,0,0,.3.1h1.26m6.159-.445h-.175c-1.963-.005-3.986-.007-6.037-.007H82.845v-.175c0-.762.006-1.437,0-2.065v-.175h.175c.882,0,1.774,0,2.639,0h.629v.007h1.136c.887,0,1.754,0,2.61,0h.177l0,.177c-.008.766-.006,1.506,0,2.066ZM84,158.257c1.99,0,3.954,0,5.863.007,0-.49,0-1.092,0-1.72-.8,0-1.609,0-2.436,0H85.944v-.007h-.281c-.808,0-1.64,0-2.465,0,0,.53,0,1.1,0,1.719Z" transform="translate(-67.872 -128.547)" fill="#fff"/>
  </g>
</svg>
