<svg id="Group_19" data-name="Group 19" xmlns="http://www.w3.org/2000/svg" xmlns:xlink="http://www.w3.org/1999/xlink" width="46.395" height="36.609" viewBox="0 0 46.395 36.609">
  <defs>
    <clipPath id="clip-path">
      <rect id="Rectangle_47" data-name="Rectangle 47" width="46.395" height="36.609" fill="none"/>
    </clipPath>
  </defs>
  <g id="Group_13" data-name="Group 13" clip-path="url(#clip-path)">
    <path id="Path_7" data-name="Path 7" d="M2.646,12.4l.306-.535c.17-.1.2-.287.292-.435.055-.089.175-.164.132-.3l.031-.074c.087.04.072-.021.069-.07l.063-.1a.438.438,0,0,0,.213-.33l.094-.143c.06.007.073-.018.049-.07l.029-.048c.059.008.075-.016.049-.069L4,10.172c.063.009.074-.019.049-.071a1.6,1.6,0,0,1,.227-.319c.057.006.074-.018.051-.07A.573.573,0,0,1,4.5,9.477a1.175,1.175,0,0,0,.318-.409A22.239,22.239,0,0,1,6.542,7.049c.11-.023.163-.124.236-.191a3.34,3.34,0,0,0,.589-.608,5.025,5.025,0,0,1,.646-.586c.326-.295.674-.567,1.024-.835.37-.282.751-.551,1.132-.818.238-.167.48-.328.734-.472.328-.186.627-.419.967-.585a.157.157,0,0,0,.2-.112,1.617,1.617,0,0,1,.525-.291c.436-.22.884-.417,1.323-.629.1-.047.216-.037.3-.117.044.033.077.039.078-.032l.115-.047c.129,0,.255,0,.317-.143.16.009.268-.11.4-.161a6.006,6.006,0,0,0,.8-.26c.086.031.173.064.208-.066l.146-.043c.1.077.167.046.209-.066a.959.959,0,0,0,.338-.1A.048.048,0,0,0,16.9.928c.027-.012.028-.039.018-.066l.186-.047a.047.047,0,0,0,.071.035c.026-.012.027-.039.017-.064l.124-.03c.046.03.076.026.075-.038l.97-.21c.058.064.131.041.2.026.3-.072.6-.15.906-.225a.17.17,0,0,1,.13-.03,1.983,1.983,0,0,0,.384-.006c.132-.027.287.025.4-.1C21.053.1,21.731.025,22.414.009A27.07,27.07,0,0,1,25.4.1c.071.006.141.021.211.032.014.037.032.04.054.007a.1.1,0,0,1,.1.022c.041.079.11.035.168.037a6.042,6.042,0,0,1,.989.118c.273.028.542.084.813.127,0,.026,0,.05.03.057a.045.045,0,0,0,.062-.043l.1.035c.038.074.082.083.134.013l.1.037a1.7,1.7,0,0,0,.584.169c.454.13.912.247,1.369.369l.286.068c-.008.026,0,.048.027.05.009,0,.019-.022.028-.034l.18.06c0,.072.034.072.079.028.359.134.719.262,1.075.4.323.127.641.268.961.4a.384.384,0,0,0,.284.14l.065.026c.006.052.033.057.074.034A17.976,17.976,0,0,1,35.11,3.28c.651.406,1.294.828,1.909,1.291.487.367.973.737,1.43,1.138a14.107,14.107,0,0,1,1.31,1.255,1.418,1.418,0,0,0,.455.468c.247.28.493.562.743.839a3.273,3.273,0,0,1,.4.536,7.59,7.59,0,0,0,.624.794c.05.027.057.08.078.124,0,.023.007.035.03.036a9.552,9.552,0,0,1,.736,1.077c.3.471.578.962.843,1.457.281.523.551,1.053.8,1.593.207.457.336.947.566,1.4a.283.283,0,0,1,.012.1c-.044.022-.02.054-.011.083.108.32.212.642.326.959a2.2,2.2,0,0,0,.194.581l.026.1c-.032.044-.038.079.029.092a1,1,0,0,1,.1.423,1.287,1.287,0,0,0,.132.554.964.964,0,0,1,.062.3c-.031.016-.021.04-.016.065.064.361.122.725.194,1.083a2.877,2.877,0,0,0,.141.788c.068.358.055.723.088,1.083a18.548,18.548,0,0,1,.078,2.06c0,.215-.016.429-.024.644-.048.04-.031.088-.016.135-.05.057-.119.046-.183.048-.1,0-.2,0-.294,0H.681c-.1,0-.2.006-.293.01-.1-.111-.246,0-.35-.084a15.83,15.83,0,0,1-.032-1.652c0-.2.016-.4.024-.6a2.022,2.022,0,0,0,.059-.834L.1,21c.081-.05.066-.11.015-.172l.02-.141c.067-.023.064-.056.014-.1l.027-.3c.075-.034.072-.08.018-.132a.219.219,0,0,1,.025-.141c.059-.024.062-.056.013-.095l.02-.182c.073-.033.078-.077.021-.131a20.285,20.285,0,0,1,.431-2.141,23.442,23.442,0,0,1,.734-2.355,15.005,15.005,0,0,1,.747-1.756.416.416,0,0,0,.158-.328A.06.06,0,0,1,2.364,13c.024,0,.048,0,.048-.028,0-.008-.022-.018-.034-.026l.063-.1c.024,0,.047,0,.048-.027,0-.008-.022-.017-.034-.025l.065-.1c.092-.011.066-.075.058-.131a.068.068,0,0,1,.021-.026c.07-.024.131-.051.046-.131m26.626-8.13a.033.033,0,0,1,.019.027.108.108,0,0,0,.1.13.041.041,0,0,1,.023.028.472.472,0,0,0,.225.316.309.309,0,0,1,.085.161c.025.083.053.165.15.193.229.351.427.72.636,1.083a18.49,18.49,0,0,1,1.164,2.453c.172.432.331.87.5,1.305,0,.021-.07.058.014.057l.024.1a.2.2,0,0,0,.071.221l.036.1c-.025,0-.034.02-.024.037s.029.013.045.019l.047.156c-.027.04-.033.071.029.078l.192.61c-.012.009-.035.017-.035.026,0,.031.024.032.048.028l.015.074a1.072,1.072,0,0,0,.156.561c.021.188.108.211.268.125.342-.184.689-.358,1.017-.568a2.327,2.327,0,0,0,.847-.5s0-.012,0-.019c.367-.25.727-.509,1.087-.767a2.9,2.9,0,0,1,.581-.43c.114,0,.17-.1.234-.156.161-.152.381-.241.489-.45a.088.088,0,0,1,.022-.021.143.143,0,0,0,.145-.144l.136-.128c.2-.024.282-.2.4-.33.04-.044,0-.11-.078-.118-.337-.313-.671-.629-1.013-.938-.212-.192-.43-.378-.655-.554-.314-.244-.641-.472-.957-.714a14.891,14.891,0,0,0-1.275-.839c-.322-.2-.658-.375-.984-.566a9.278,9.278,0,0,0-1.1-.558c0-.083-.037-.112-.116-.075L30.68,3.8a.678.678,0,0,0-.481-.2c-.139,0-.249-.1-.384-.113-.031-.109-.109-.1-.194-.078l-.156-.051a.234.234,0,0,0-.288-.087c-.228-.059-.458-.112-.683-.18a.119.119,0,0,0-.12.013c-.032.036.011.078.036.107.11.124.225.244.337.366-.014.05-.011.09.054.095l.1.109a.419.419,0,0,0,.223.278l.1.14c-.005.038,0,.065.05.064M16.248,8.187a.051.051,0,0,1-.026.02c-.135.048-.142.151-.114.268l-.037.088c-.049-.01-.071.006-.058.058l-.279.72a1.236,1.236,0,0,0-.205.553c-.126.382-.288.752-.39,1.143a6.172,6.172,0,0,0-.219.813c-.159.112-.11.3-.162.45a2.381,2.381,0,0,1-.047.3c-.024.069-.04.169.067.216s.216.109.329.152c.392.15.786.294,1.18.441-.009.026,0,.047.026.051.009,0,.021-.019.032-.03l.179.059c-.01.025,0,.045.024.049.009,0,.02-.018.03-.028l.454.141c.006.016.008.039.019.044s.036,0,.035-.029a7.793,7.793,0,0,0,.928.257c.031.057.068.088.126.03l.1.024c.06.063.125.107.213.05l.142.03c.06.062.124.107.211.047l.142.027a.2.2,0,0,0,.251.05l1.474.222c0,.03.008.053.039.054a4.494,4.494,0,0,0,.914.033l.463.024a.7.7,0,0,0,.453,0c.006-.091.018-.182.018-.272q0-5.7,0-11.391c0-.416,0-.416-.425-.405-.026,0-.052,0-.078-.005-.041-.065-.106-.038-.158-.033-.345.031-.691.064-1.035.107-.062.008-.163-.049-.189.069-.137-.01-.232.085-.343.139a.687.687,0,0,0-.443.33l-.285.226a8.978,8.978,0,0,0-.748.743.775.775,0,0,0-.413.485,12.042,12.042,0,0,0-1.358,1.971,15.492,15.492,0,0,0-.744,1.477c-.033.069-.139.109-.1.212a.014.014,0,0,0,0,.024M5.329,12.552a.029.029,0,0,1-.014.026.5.5,0,0,0-.243.383,2.925,2.925,0,0,1-.182.37c-.181.278-.308.586-.463.878-.2.377-.33.785-.511,1.17a.733.733,0,0,0-.185.429c-.159.456-.334.906-.462,1.372a3.96,3.96,0,0,0-.309,1.074c-.06.39-.123.779-.214,1.164a.335.335,0,0,0-.066.361l-.029.141c-.049.012-.059.03-.01.058a5.266,5.266,0,0,0-.1.77c-.075.016-.07.049-.02.092l-.036.375c-.051.028-.054.058-.007.093l-.012.186c-.118.151-.061.316-.039.479q-.012.308-.024.617a.708.708,0,0,0,.01.531.69.69,0,0,0,.271.028h9.263c.262,0,.26,0,.265-.255,0-.11.014-.221.021-.331a.9.9,0,0,0,.007-.506c.029-.682.019-1.364.074-2.047.086-1.057.17-2.112.344-3.159.1-.6.172-1.206.257-1.809A.376.376,0,0,0,13,14.7l.015-.1a1.306,1.306,0,0,0,.12-.584c-.01-.068.08-.123.024-.2.067-.139.229-.285.044-.43a1.308,1.308,0,0,0-.553-.257c-.059-.037-.119-.072-.177-.11a5.125,5.125,0,0,1-.727-.413c0-.032-.015-.016-.026-.005a3.024,3.024,0,0,1-.579-.339c-.214-.135-.442-.252-.648-.4-.368-.263-.712-.562-1.089-.81-.393-.259-.726-.59-1.094-.877a4.42,4.42,0,0,1-.641-.61c-.073-.086-.123-.075-.2.006-.351.385-.637.823-.969,1.222-.435.523-.759,1.118-1.139,1.677-.063,0-.06.029-.036.071M26.4,2.994a.06.06,0,0,1-.028-.022.731.731,0,0,0-.445-.333l-.1-.057a1.84,1.84,0,0,0-.951-.113l-.146-.009a.769.769,0,0,0-.559-.033l-.145-.007c-.036-.094-.108-.053-.167-.037-.033.009-.067.042-.016.079,0,.065,0,.13,0,.2q0,5.808,0,11.616c0,.254,0,.245.263.246a21.844,21.844,0,0,0,2.417-.22c.056.062.1.056.133-.021l.1-.016a.3.3,0,0,0,.327-.057l.141-.024c.043.054.075.054.094-.018.31-.07.621-.134.929-.21.427-.1.858-.2,1.277-.332.455-.143.9-.322,1.348-.486a.65.65,0,0,0,.444-.182l.122-.049c.042.028.071.023.075-.034l.161-.078c.1-.032.108-.067.025-.157l-.487-1.681c.02-.038.052-.081-.031-.078l-.019-.074a1.119,1.119,0,0,0-.13-.482c-.042-.121-.035-.268-.165-.348a3.185,3.185,0,0,1-.206-.632c-.011-.046.015-.115-.072-.114l-.022-.06a.471.471,0,0,0-.144-.376l-.181-.433c.023-.042.018-.069-.037-.071-.126-.273-.237-.555-.381-.819A17.372,17.372,0,0,0,28.37,5.082c-.249-.321-.512-.636-.747-.969a2.435,2.435,0,0,0-.511-.566c-.07-.076-.125-.185-.251-.195a.133.133,0,0,1-.023-.023.725.725,0,0,0-.44-.335m-8.449.074c0-.024-.018-.036-.036-.028s-.014.028-.021.043l-.1.029c-.009-.011-.02-.031-.028-.03-.027,0-.035.022-.025.047l-.159.04c-.047-.03-.076-.025-.075.039-.128.006-.243.1-.378.059a2.927,2.927,0,0,0-.306.091c-.115.048-.258.037-.341.154l-1.144.43a4.09,4.09,0,0,0-1.014.4c-.109.048-.251.062-.307.2-.144.015-.236.128-.357.188A16.067,16.067,0,0,0,11.876,5.74a.808.808,0,0,0-.487.331c-.234.166-.464.34-.7.5s-.438.409-.7.561a2.251,2.251,0,0,0-.451.356q-.441.446-.907.864c-.089.081-.225.159-.184.324a.67.67,0,0,0,.4.37c.234.3.6.445.851.728a1.046,1.046,0,0,0,.559.448,3.013,3.013,0,0,0,.463.337c0,.013-.006.031,0,.037a6.709,6.709,0,0,0,.712.52c.032.023.059-.009.082-.031a6.393,6.393,0,0,0,1.088.682.577.577,0,0,0,.411.252c.115.007.19.1.293.137.163.059.256.035.3-.151.063-.258.151-.51.228-.765A1.986,1.986,0,0,0,14,10.773c.1-.338.2-.677.315-1.01a16.474,16.474,0,0,1,.918-2.213c.01-.018,0-.047-.005-.072a.08.08,0,0,0,.071-.057c.141-.3.309-.578.426-.886a3.993,3.993,0,0,1,.208-.44c.245-.4.49-.793.744-1.184a12.541,12.541,0,0,1,.82-1.131c.169-.206.345-.405.519-.607.094-.108.015-.106-.065-.1M16.411,14.711a1.726,1.726,0,0,0-.742-.239c-.389-.145-.78-.288-1.168-.437-.114-.044-.167.025-.184.105-.053.241-.09.486-.134.73-.028,0-.052.006-.057.037-.074.447-.141.894-.228,1.339a.872.872,0,0,0-.023.358c-.006.074-.069.145-.009.222a1.3,1.3,0,0,0-.129.486c0,.03.026.04.054.043l-.047.411c-.013.008-.035.014-.038.026s.008.034.031.031a.441.441,0,0,1-.033.216c-.054.014-.059.034-.006.059l-.021.22c-.017,0-.048.006-.049.013a1.453,1.453,0,0,0-.046.553c-.035.187.057.376-.006.563-.046.016-.055.035-.006.06-.026.343-.065.686-.077,1.03-.025.763-.036,1.526-.052,2.29-.006.321,0,.321.311.321H22.31c.253,0,.254,0,.254-.262q0-.587,0-1.175-.007-2.965-.015-5.93c.043-.076-.022-.092-.065-.091a2.226,2.226,0,0,0-.55.012l-.142-.008a2.615,2.615,0,0,0-.876-.068,1.815,1.815,0,0,1-.422-.04c-.019-.032-.037-.034-.053,0-.123.041-.227-.025-.337-.058a.561.561,0,0,0-.4-.06l-.5-.072a.608.608,0,0,0-.48-.1l-.105-.019c-.012-.08-.045-.078-.092-.024l-.139-.027c-.059-.069-.123-.119-.214-.048l-.1-.023a.148.148,0,0,0-.211-.052l-.143-.019c0-.08-.064-.066-.109-.077-.235-.053-.47-.1-.7-.157a2.523,2.523,0,0,1-.483-.143m15.605-.675c-.042-.015-.092-.053-.125-.041a3.43,3.43,0,0,0-.829.337,1.033,1.033,0,0,1-.321.124c-.152-.05-.269.056-.4.1a1.5,1.5,0,0,0-.537.206,3.768,3.768,0,0,1-.731.212c-.046-.046-.079-.044-.093.026l-.1.023c-.093-.066-.154-.017-.21.056l-.1.022a.16.16,0,0,0-.211.053l-.1.022a.192.192,0,0,0-.249.056l-.1.019a1.5,1.5,0,0,0-.714.138l-.542.091a.476.476,0,0,0-.405.058l-.22.031c-.065-.052-.127-.079-.172.022l-.18.018c-.062-.051-.122-.077-.171.016a.727.727,0,0,1-.259.027c-.038-.058-.07-.061-.1.009a1.782,1.782,0,0,1-.454.031,4.609,4.609,0,0,0-.653,0c-.062,0-.143-.04-.188.046-.1.107-.01.223-.01.333q-.01,3.407-.009,6.813c0,.265,0,.268.262.268q4.328,0,8.656,0c.159,0,.216-.042.211-.209-.021-.7-.029-1.4-.042-2.094a.078.078,0,0,0-.007-.107.767.767,0,0,1-.025-.132c-.01-.63-.087-1.256-.125-1.884.06-.065.089-.126-.02-.17l-.053-.537c.051-.064.085-.126-.023-.169l-.047-.421c.04-.063.074-.126-.026-.167l-.015-.146c.045-.024.03-.042-.005-.058l-.027-.178c.035-.064.069-.129-.029-.171l-.017-.141a.835.835,0,0,0-.032-.388c-.024-.07.046-.178-.077-.211-.046-.279-.087-.56-.141-.837-.071-.366-.153-.73-.23-1.1m11.822,6.6a.534.534,0,0,0-.057-.447l-.012-.1c.031-.046-.012-.064-.034-.09l-.16-.886a.73.73,0,0,0-.092-.523l-.042-.2c.027-.05.045-.1-.032-.118l-.019-.1a.169.169,0,0,0-.059-.21l-.02-.1a1.926,1.926,0,0,0-.168-.658c-.034-.1.018-.247-.136-.292a.579.579,0,0,0-.018-.115c-.22-.59-.42-1.189-.668-1.767a21.52,21.52,0,0,0-1.939-3.521c-.315-.468-.672-.9-1-1.36a.7.7,0,0,0-.308-.378c-.248-.235-.248-.235-.52-.019a.3.3,0,0,1-.033.02c-.039,0-.059.013-.057.053l-.067.062a.09.09,0,0,0-.093.076,4.054,4.054,0,0,1-.638.561.957.957,0,0,0-.408.332,1.467,1.467,0,0,1-.367.29,24.5,24.5,0,0,1-2.638,1.727c-.044-.012-.09-.024-.1.045l-.084.046C34.031,12.939,34,12.946,34,13l-.158.085c-.046-.025-.076-.021-.073.041l-.081.038c-.05-.029-.079-.02-.079.043l-.445.256c-.029-.012-.053-.008-.053.027s.022.029.044.021l.149.871c-.009.038-.01.071.043.071l.022.1c-.024,0-.035.014-.028.033s.026.017.039.025l.031.1c-.082.111-.03.2.042.293l.043.175c-.064.052-.082.1.016.131,0,.172.125.33.052.509,0,.03.011.044.039.048l.014.105a9.128,9.128,0,0,0,.109.976c.123.3.06.633.153.939-.064.052-.056.1.017.13l.018.222c-.047.036-.043.067.008.094l.014.121c-.014.119-.07.242.036.348q.007.092.014.184a.15.15,0,0,0,.015.207q.006.063.013.127c-.014.143-.067.289.035.423.005.1.011.2.016.3a.114.114,0,0,0,.009.168l.018.242a.715.715,0,0,0,.026.467c.043.669.047,1.339.048,2.009-.019.068-.052.138.026.193a.592.592,0,0,0,.232.026q4.673,0,9.347,0c.168,0,.223-.036.221-.215-.012-.768-.079-1.531-.152-2.295" transform="translate(0 0)" fill="#fff"/>
    <path id="Path_8" data-name="Path 8" d="M110.455,183.575c.089-.3.172-.565.241-.831.1-.383.184-.77.287-1.152.2-.757.417-1.51.619-2.267.133-.5.257-1,.376-1.507a.174.174,0,0,1,.2-.157q1.039.005,2.077,0c.111,0,.143.036.175.149.3,1.047.567,2.1.809,3.166.125.548.3,1.082.423,1.629.059.259.132.514.2.771.013.051.02.109.086.113s.05-.064.067-.1a7.149,7.149,0,0,0,.305-.971c.21-.683.394-1.373.593-2.06.158-.547.335-1.088.476-1.64.076-.3.175-.589.266-.882a.209.209,0,0,1,.234-.177c.686.007,1.372,0,2.057,0,.177,0,.175.026.117.193-.1.287-.164.584-.255.874-.247.787-.485,1.577-.756,2.355-.31.895-.588,1.8-.889,2.7-.269.8-.47,1.628-.787,2.415-.083.207-.116.43-.2.64a.125.125,0,0,1-.139.1c-.705,0-1.411,0-2.116,0-.122,0-.156-.07-.181-.162q-.3-1.105-.594-2.211-.423-1.58-.844-3.161c-.015-.055-.019-.133-.087-.138-.087-.006-.087.088-.1.143-.158.576-.316,1.151-.463,1.73-.134.527-.305,1.044-.426,1.572-.152.666-.351,1.318-.5,1.985a.268.268,0,0,1-.321.245c-.646-.013-1.293-.008-1.94,0a.232.232,0,0,1-.27-.179c-.28-.785-.478-1.594-.742-2.384-.338-1.012-.648-2.034-.973-3.05-.194-.606-.4-1.21-.589-1.817-.174-.544-.344-1.09-.515-1.635-.043-.137-.031-.215.154-.212.673.01,1.345.006,2.018,0,.13,0,.164.041.2.168.1.349.22.69.316,1.04.235.854.483,1.7.724,2.557.147.52.317,1.034.448,1.56a2.058,2.058,0,0,0,.218.591" transform="translate(-89.998 -150.331)" fill="#fff"/>
    <path id="Path_9" data-name="Path 9" d="M200.687,183.639c.145-.414.214-.833.329-1.239.164-.581.331-1.162.471-1.749.2-.849.477-1.681.633-2.542a2.152,2.152,0,0,1,.113-.349c.029-.079.094-.094.174-.094q1.048,0,2.1,0c.084,0,.15,0,.173.111.144.666.305,1.328.491,1.984.2.692.354,1.394.524,2.093.128.527.289,1.046.414,1.575.009.04.013.1.072.1s.073-.073.083-.114c.219-.879.543-1.727.766-2.605.132-.517.262-1.036.427-1.543s.284-1,.441-1.49a.145.145,0,0,1,.158-.113q1.088,0,2.175,0c.119,0,.129.065.1.154-.284.836-.526,1.686-.814,2.521-.216.625-.368,1.271-.59,1.893-.294.824-.544,1.662-.826,2.49-.211.622-.4,1.256-.585,1.887-.1.328-.1.326-.434.327h-1.724c-.348,0-.373-.01-.444-.342-.139-.649-.294-1.295-.483-1.93-.323-1.084-.57-2.186-.874-3.274-.03-.105-.066-.209-.105-.33a7.385,7.385,0,0,0-.317,1.116c-.189.814-.429,1.615-.639,2.424-.179.688-.364,1.375-.533,2.066-.049.2-.13.282-.353.276-.646-.018-1.293-.008-1.94,0a.2.2,0,0,1-.233-.171c-.3-.974-.636-1.939-.929-2.916-.271-.9-.588-1.79-.851-2.695s-.574-1.779-.85-2.672a4.068,4.068,0,0,1-.2-.634c-.019-.136,0-.191.148-.19.686.005,1.372,0,2.057,0a.175.175,0,0,1,.193.149c.208.693.367,1.4.572,2.092.082.278.174.554.253.834.141.5.266,1.008.409,1.509.086.3.192.6.291.895a1.908,1.908,0,0,0,.159.495" transform="translate(-166.357 -150.338)" fill="#fff"/>
    <path id="Path_10" data-name="Path 10" d="M23.026,181.148c-.15.549-.3,1.082-.441,1.618-.15.571-.271,1.151-.438,1.717-.216.731-.376,1.477-.579,2.211-.042.154-.1.24-.291.236-.659-.014-1.319-.011-1.979,0a.241.241,0,0,1-.279-.2c-.178-.667-.434-1.309-.625-1.971-.254-.88-.573-1.739-.822-2.619-.152-.538-.326-1.069-.5-1.6-.116-.348-.237-.7-.344-1.046q-.184-.6-.379-1.2c-.05-.155-.076-.313-.126-.467-.034-.107-.006-.16.115-.16q1.048,0,2.1,0a.151.151,0,0,1,.165.129c.215.737.441,1.472.649,2.211.11.39.156.8.3,1.18.163.44.286.889.417,1.337.088.3.162.61.231.918.017.074.025.164.1.163s.032-.1.049-.151c.2-.6.319-1.227.484-1.839.215-.8.441-1.6.628-2.411.11-.475.252-.942.377-1.413a.159.159,0,0,1,.182-.133c.7,0,1.4,0,2.1,0,.076,0,.113.013.142.11.253.853.461,1.717.656,2.585.091.4.234.8.337,1.2.142.559.266,1.122.4,1.683.032.131.082.257.142.437.094-.3.189-.55.25-.81.191-.811.478-1.593.7-2.394.2-.706.42-1.4.608-2.112a3.252,3.252,0,0,0,.117-.426c.028-.234.152-.284.371-.279.646.014,1.293.012,1.94,0,.184,0,.2.069.152.21-.16.467-.329.932-.481,1.4-.12.371-.195.757-.334,1.12-.359.938-.585,1.919-.938,2.86-.217.578-.363,1.182-.55,1.771s-.393,1.193-.586,1.79a.157.157,0,0,1-.17.126c-.705,0-1.411,0-2.116,0-.112,0-.148-.066-.171-.152-.153-.584-.3-1.169-.457-1.751-.289-1.06-.539-2.13-.852-3.184-.049-.165-.09-.333-.133-.5a.29.29,0,0,0-.11-.19" transform="translate(-13.714 -150.321)" fill="#fff"/>
  </g>
</svg>
